<svg width="760" height="200" viewBox="0 0 760 200" fill="none" xmlns="http://www.w3.org/2000/svg" role="img" aria-labelledby="logoTitle logoDesc">
  <title id="logoTitle">TownPet logo</title>
  <desc id="logoDesc">TownPet wordmark with blue pet pin symbol</desc>
  <defs>
    <linearGradient id="pinGrad" x1="34" y1="24" x2="146" y2="174" gradientUnits="userSpaceOnUse">
      <stop stop-color="#2694FF"/>
      <stop offset="1" stop-color="#0E5BCF"/>
    </linearGradient>
    <linearGradient id="pinShine" x1="55" y1="118" x2="128" y2="164" gradientUnits="userSpaceOnUse">
      <stop stop-color="#5EC2FF" stop-opacity="0.88"/>
      <stop offset="1" stop-color="#2F8AF0" stop-opacity="0.56"/>
    </linearGradient>
    <linearGradient id="wordGrad" x1="172" y1="52" x2="650" y2="132" gradientUnits="userSpaceOnUse">
      <stop stop-color="#1D86EE"/>
      <stop offset="1" stop-color="#1E64D0"/>
    </linearGradient>
    <filter id="pinShadow" x="18" y="18" width="142" height="176" filterUnits="userSpaceOnUse" color-interpolation-filters="sRGB">
      <feFlood flood-opacity="0" result="BackgroundImageFix"/>
      <feColorMatrix in="SourceAlpha" type="matrix" values="0 0 0 0 0 0 0 0 0 0 0 0 0 0 0 0 0 0 127 0" result="hardAlpha"/>
      <feOffset dy="3"/>
      <feGaussianBlur stdDeviation="3"/>
      <feComposite in2="hardAlpha" operator="out"/>
      <feColorMatrix type="matrix" values="0 0 0 0 0.0784314 0 0 0 0 0.313726 0 0 0 0 0.662745 0 0 0 0.2 0"/>
      <feBlend mode="normal" in2="BackgroundImageFix" result="effect1_dropShadow_0_1"/>
      <feBlend mode="normal" in="SourceGraphic" in2="effect1_dropShadow_0_1" result="shape"/>
    </filter>
  </defs>

  <g filter="url(#pinShadow)">
    <path d="M90 25C58.5198 25 33 50.5198 33 82C33 117.932 58.1918 146.58 81.9101 172.002C86.2793 176.686 93.7207 176.686 98.0899 172.002C121.808 146.58 147 117.932 147 82C147 50.5198 121.48 25 90 25Z" fill="url(#pinGrad)"/>
    <path d="M114 140.5C103.6 151.6 95.4 160.3 92.7 163.2C91.2 164.8 88.8 164.8 87.3 163.2C84.2 159.9 72.3 147.3 62.3 135.8C77.1 128.9 97.5 130.6 114 140.5Z" fill="url(#pinShine)"/>

    <circle cx="66.2" cy="75.6" r="8.6" fill="#F5FAFF"/>
    <circle cx="81.4" cy="64.8" r="8.1" fill="#F5FAFF"/>
    <circle cx="99" cy="64.8" r="8.1" fill="#F5FAFF"/>
    <circle cx="114" cy="75.6" r="8.6" fill="#F5FAFF"/>
    <ellipse cx="90.4" cy="96.2" rx="16.2" ry="14.4" fill="#F5FAFF"/>
  </g>

  <text x="172" y="124" fill="url(#wordGrad)" font-family="'Segoe UI','Arial',sans-serif" font-size="88" font-weight="800" letter-spacing="-1.05">TownPet</text>
</svg>
